<svg width="17" height="16" viewBox="0 0 17 16" fill="none" xmlns="http://www.w3.org/2000/svg">
<g id="vuesax/outline/arrow-right">
<g id="arrow-right">
<path id="Vector" d="M6.43974 13.78C6.31307 13.78 6.18641 13.7333 6.08641 13.6333C5.89307 13.44 5.89307 13.12 6.08641 12.9267L10.4331 8.58C10.7531 8.26 10.7531 7.74 10.4331 7.42L6.08641 3.07333C5.89307 2.88 5.89307 2.56 6.08641 2.36666C6.27974 2.17333 6.59974 2.17333 6.79307 2.36666L11.1397 6.71333C11.4797 7.05333 11.6731 7.51333 11.6731 8C11.6731 8.48666 11.4864 8.94666 11.1397 9.28666L6.79307 13.6333C6.69307 13.7267 6.56641 13.78 6.43974 13.78Z" fill="#616C77"/>
</g>
</g>
</svg>
