<svg width="16" height="16" viewBox="0 0 16 16" fill="none" xmlns="http://www.w3.org/2000/svg">
<path fill-rule="evenodd" clip-rule="evenodd" d="M5.49902 8.66669C5.49902 8.00365 5.76242 7.36776 6.23126 6.89892C6.7001 6.43008 7.33598 6.16669 7.99902 6.16669C8.66206 6.16669 9.29795 6.43008 9.76679 6.89892C10.2356 7.36776 10.499 8.00365 10.499 8.66669C10.499 9.32973 10.2356 9.96561 9.76679 10.4345C9.29795 10.9033 8.66206 11.1667 7.99902 11.1667C7.33598 11.1667 6.7001 10.9033 6.23126 10.4345C5.76242 9.96561 5.49902 9.32973 5.49902 8.66669ZM7.99902 7.16669C7.6012 7.16669 7.21967 7.32472 6.93836 7.60603C6.65706 7.88733 6.49902 8.26886 6.49902 8.66669C6.49902 9.06451 6.65706 9.44604 6.93836 9.72735C7.21967 10.0087 7.6012 10.1667 7.99902 10.1667C8.39685 10.1667 8.77838 10.0087 9.05968 9.72735C9.34099 9.44604 9.49902 9.06451 9.49902 8.66669C9.49902 8.26886 9.34099 7.88733 9.05968 7.60603C8.77838 7.32472 8.39685 7.16669 7.99902 7.16669Z" fill="#000311"/>
<path fill-rule="evenodd" clip-rule="evenodd" d="M7.07649 3.83334C6.74196 3.83334 6.42114 3.96623 6.18459 4.20278C5.94805 4.43933 5.81516 4.76015 5.81516 5.09468C5.81504 5.3088 5.73443 5.51505 5.58933 5.67251C5.44422 5.82996 5.24522 5.92711 5.03182 5.94468L3.54516 6.06468C3.40299 6.07613 3.26853 6.13402 3.16251 6.22944C3.05649 6.32485 2.9848 6.45249 2.95849 6.59268C2.65958 8.17262 2.63747 9.79249 2.89316 11.38L2.95782 11.7827C3.01916 12.1627 3.33182 12.4527 3.71582 12.484L5.01116 12.5893C6.99989 12.7507 8.99842 12.7507 10.9872 12.5893L12.2818 12.484C12.4685 12.4689 12.6448 12.3916 12.7823 12.2644C12.9199 12.1373 13.0108 11.9676 13.0405 11.7827L13.1052 11.38C13.3606 9.79246 13.3383 8.17258 13.0392 6.59268C13.0127 6.45261 12.941 6.32513 12.835 6.22984C12.729 6.13456 12.5946 6.07676 12.4525 6.06534L10.9665 5.94468C10.753 5.92741 10.5538 5.83035 10.4086 5.67283C10.2635 5.51531 10.183 5.30889 10.1832 5.09468C10.1832 4.92904 10.1505 4.76502 10.0871 4.61199C10.0238 4.45895 9.93085 4.31991 9.81372 4.20278C9.6966 4.08565 9.55755 3.99274 9.40452 3.92936C9.25148 3.86597 9.08746 3.83334 8.92182 3.83334H7.07649ZM4.81916 4.95868C4.85397 4.38356 5.10693 3.8434 5.52643 3.44844C5.94592 3.05348 6.50032 2.83348 7.07649 2.83334H8.92182C10.1252 2.83334 11.1085 3.77334 11.1792 4.95868L12.5338 5.06868C12.8942 5.09777 13.2351 5.24448 13.5039 5.48623C13.7728 5.72799 13.9547 6.05139 14.0218 6.40668C14.3425 8.10001 14.3665 9.83668 14.0925 11.5387L14.0278 11.942C13.9625 12.3477 13.763 12.7198 13.4612 12.9988C13.1594 13.2777 12.7728 13.4474 12.3632 13.4807L11.0685 13.586C9.02563 13.7519 6.97268 13.7519 4.92982 13.586L3.63516 13.4807C3.22554 13.4474 2.83892 13.2777 2.53713 12.9988C2.23534 12.7198 2.03582 12.3477 1.97049 11.942L1.90582 11.5387C1.63194 9.83683 1.65585 8.10034 1.97649 6.40668C2.04367 6.05144 2.22567 5.72809 2.49451 5.48636C2.76334 5.24462 3.10413 5.09788 3.46449 5.06868L4.81916 4.95868Z" fill="#000311"/>
</svg>
