<svg width="88" height="88" viewBox="0 0 88 88" fill="none" xmlns="http://www.w3.org/2000/svg">
<g id="Frame 1686560694">
<rect x="0.5" y="0.5" width="87" height="87" rx="43.5" fill="white"/>
<g id="Group">
<path id="Vector" d="M63.4564 23.8466H21.2073C17.7666 23.8466 14.9766 26.6367 14.9766 30.0773V53.6087C14.9766 57.0494 17.7666 59.8395 21.2073 59.8395H23.6292L28.2438 67.1399L34.3889 59.8395H63.454C66.8947 59.8395 69.6848 57.0494 69.6848 53.6087V30.0773C69.6848 26.6367 66.8947 23.8466 63.454 23.8466H63.4564Z" fill="#6189BA"/>
<g id="Vector_2">
<path d="M28.729 39.3803L26.4715 34.8051L24.2139 39.3803L19.1641 40.1143L22.8178 43.6753L21.9541 48.7044L26.4715 46.3288L30.9888 48.7044L30.1252 43.6753L33.7789 40.1143L28.729 39.3803ZM29.8404 47.1253L26.4715 45.354L23.1026 47.1253L23.7462 43.3743L21.021 40.7163L24.7882 40.1698L26.4738 36.7569L28.1594 40.1698L31.9265 40.7163L29.2013 43.3743L29.845 47.1253H29.8404Z" fill="#6189BA"/>
<path d="M44.5964 39.3803L42.3389 34.8051L40.0814 39.3803L35.0315 40.1143L38.6852 43.6753L37.8215 48.7044L42.3389 46.3288L46.8562 48.7044L45.9926 43.6753L49.6463 40.1143L44.5964 39.3803ZM45.7078 47.1253L42.3389 45.354L38.97 47.1253L39.6136 43.3743L36.8884 40.7163L40.6556 40.1698L42.3412 36.7569L44.0268 40.1698L47.794 40.7163L45.0687 43.3743L45.7124 47.1253H45.7078Z" fill="#6189BA"/>
<path d="M58.2017 34.8051L55.9442 39.3803L50.8943 40.1143L54.548 43.6753L53.6843 48.7044L58.2017 46.3288L62.719 48.7044L61.8554 43.6753L65.5091 40.1143L60.4592 39.3803L58.2017 34.8051ZM60.9269 43.3743L61.5706 47.1253L58.2017 45.354L54.8328 47.1253L55.4764 43.3743L52.7512 40.7163L56.5184 40.1698L58.204 36.7569L59.8896 40.1698L63.6567 40.7163L60.9315 43.3743H60.9269Z" fill="#6189BA"/>
</g>
<g id="Group_2">
<g id="Vector_3">
<path d="M64.0891 20.54H24.0929C21.5714 20.54 19.3116 21.9246 18.1632 24.1612C16.0191 25.2703 14.5488 27.507 14.5488 30.0817V53.6131C14.5488 57.2876 17.538 60.2745 21.2102 60.2745H23.396L28.1981 67.8736L34.5955 60.2745H63.4593C66.034 60.2745 68.2707 58.8042 69.3797 56.6625C71.6164 55.5141 73.001 53.2565 73.001 50.7328V29.4496C73.001 24.534 69.0023 20.5353 64.0868 20.5353L64.0891 20.54ZM63.4616 59.4132H34.195L28.3 66.4149L23.8729 59.4132H21.2125C18.015 59.4132 15.4148 56.813 15.4148 53.6154V30.084C15.4148 26.8865 18.015 24.2863 21.2125 24.2863H63.4616C66.6592 24.2863 69.2594 26.8865 69.2594 30.084V53.6154C69.2594 56.813 66.6592 59.4132 63.4616 59.4132ZM72.1397 50.7351C72.1397 52.5619 71.3062 54.229 69.9053 55.3126C70.0489 54.7708 70.1253 54.2012 70.1253 53.6131V30.0817C70.1253 26.4072 67.1361 23.4203 63.4639 23.4203H21.2149C20.6267 23.4203 20.0595 23.4967 19.5154 23.6403C20.599 22.2372 22.2684 21.4036 24.0929 21.4036H64.0891C68.5277 21.4036 72.1397 25.0156 72.1397 29.4519V50.7351Z" fill="#6189BA"/>
<path d="M63.4616 23.8464H21.2125C17.7719 23.8464 14.9818 26.6364 14.9818 30.0771V53.6085C14.9818 57.0492 17.7719 59.8392 21.2125 59.8392H23.6344L28.249 67.1397L34.3941 59.8392H63.4593C66.9 59.8392 69.69 57.0492 69.69 53.6085V30.0771C69.69 26.6364 66.9 23.8464 63.4593 23.8464H63.4616Z" fill="#6189BA"/>
</g>
<g id="Group_3">
<path id="Vector_4" d="M26.4769 45.838L30.4201 47.9126L29.6676 43.5203L32.8559 40.4107L28.4473 39.7716L26.4769 35.7753L24.5042 39.7716L20.0957 40.4107L23.2863 43.5203L22.5338 47.9126L26.4769 45.838Z" fill="white"/>
<path id="Vector_5" d="M42.3399 45.838L46.283 47.9126L45.5305 43.5203L48.7211 40.4107L44.3126 39.7716L42.3399 35.7753L40.3694 39.7716L35.9609 40.4107L39.1492 43.5203L38.3967 47.9126L42.3399 45.838Z" fill="white"/>
<path id="Vector_6" d="M58.2051 45.838L62.1482 47.9126L61.3957 43.5203L64.5863 40.4107L60.1778 39.7716L58.2051 35.7753L56.2347 39.7716L51.8262 40.4107L55.0168 43.5203L54.262 47.9126L58.2051 45.838Z" fill="white"/>
</g>
</g>
</g>
<rect x="0.5" y="0.5" width="87" height="87" rx="43.5" stroke="#ABABAB"/>
</g>
</svg>
