<svg width="23" height="22" viewBox="0 0 23 22" fill="none" xmlns="http://www.w3.org/2000/svg">
<g filter="url(#filter0_d_340_730)">
<path fill-rule="evenodd" clip-rule="evenodd" d="M8.25488 7.44415C8.25488 6.69823 8.5512 5.98286 9.07864 5.45542C9.60609 4.92797 10.3215 4.63165 11.0674 4.63165C11.8133 4.63165 12.5287 4.92797 13.0561 5.45542C13.5836 5.98286 13.8799 6.69823 13.8799 7.44415C13.8799 8.19007 13.5836 8.90544 13.0561 9.43289C12.5287 9.96034 11.8133 10.2567 11.0674 10.2567C10.3215 10.2567 9.60609 9.96034 9.07864 9.43289C8.5512 8.90544 8.25488 8.19007 8.25488 7.44415ZM11.0674 5.75665C10.6198 5.75665 10.1906 5.93444 9.87414 6.25091C9.55767 6.56738 9.37988 6.9966 9.37988 7.44415C9.37988 7.89171 9.55767 8.32093 9.87414 8.6374C10.1906 8.95386 10.6198 9.13165 11.0674 9.13165C11.5149 9.13165 11.9442 8.95386 12.2606 8.6374C12.5771 8.32093 12.7549 7.89171 12.7549 7.44415C12.7549 6.9966 12.5771 6.56738 12.2606 6.25091C11.9442 5.93444 11.5149 5.75665 11.0674 5.75665Z" fill="white"/>
<path fill-rule="evenodd" clip-rule="evenodd" d="M10.0297 2.00665C9.65331 2.00665 9.29239 2.15615 9.02627 2.42227C8.76016 2.68838 8.61066 3.04931 8.61066 3.42565C8.61053 3.66654 8.51984 3.89857 8.3566 4.07571C8.19335 4.25285 7.96948 4.36214 7.72941 4.3819L6.05691 4.5169C5.89696 4.52978 5.7457 4.59492 5.62643 4.70226C5.50716 4.8096 5.4265 4.9532 5.39691 5.1109C5.06063 6.88834 5.03576 8.7107 5.32341 10.4967L5.39616 10.9497C5.46516 11.3772 5.81691 11.7034 6.24891 11.7387L7.70616 11.8572C9.94348 12.0387 12.1918 12.0387 14.4292 11.8572L15.8857 11.7387C16.0957 11.7217 16.294 11.6347 16.4487 11.4916C16.6035 11.3486 16.7058 11.1577 16.7392 10.9497L16.8119 10.4967C17.0993 8.71065 17.0742 6.8883 16.7377 5.1109C16.7079 4.95333 16.6272 4.80991 16.5079 4.70271C16.3887 4.59552 16.2375 4.53049 16.0777 4.51765L14.4059 4.3819C14.1657 4.36248 13.9416 4.25329 13.7783 4.07608C13.615 3.89887 13.5244 3.66664 13.5247 3.42565C13.5247 3.23931 13.488 3.05479 13.4166 2.88262C13.3453 2.71046 13.2408 2.55403 13.109 2.42227C12.9773 2.2905 12.8208 2.18598 12.6487 2.11467C12.4765 2.04336 12.292 2.00665 12.1057 2.00665H10.0297ZM7.49016 3.27265C7.52932 2.62565 7.8139 2.01797 8.28583 1.57364C8.75776 1.1293 9.38146 0.881806 10.0297 0.881653H12.1057C13.4594 0.881653 14.5657 1.93915 14.6452 3.27265L16.1692 3.3964C16.5746 3.42913 16.9581 3.59418 17.2605 3.86615C17.563 4.13813 17.7677 4.50195 17.8432 4.90165C18.2039 6.80665 18.2309 8.7604 17.9227 10.6752L17.8499 11.1289C17.7764 11.5854 17.5519 12.004 17.2124 12.3178C16.8729 12.6316 16.438 12.8225 15.9772 12.8599L14.5207 12.9784C12.2224 13.165 9.91287 13.165 7.61466 12.9784L6.15816 12.8599C5.69734 12.8225 5.26239 12.6316 4.92287 12.3178C4.58336 12.004 4.3589 11.5854 4.28541 11.1289L4.21266 10.6752C3.90453 8.76058 3.93143 6.80702 4.29216 4.90165C4.36774 4.50201 4.57248 4.13825 4.87492 3.8663C5.17737 3.59434 5.56076 3.42925 5.96616 3.3964L7.49016 3.27265Z" fill="white"/>
</g>
<defs>
<filter id="filter0_d_340_730" x="0" y="0.881653" width="22.1357" height="20.2367" filterUnits="userSpaceOnUse" color-interpolation-filters="sRGB">
<feFlood flood-opacity="0" result="BackgroundImageFix"/>
<feColorMatrix in="SourceAlpha" type="matrix" values="0 0 0 0 0 0 0 0 0 0 0 0 0 0 0 0 0 0 127 0" result="hardAlpha"/>
<feOffset dy="4"/>
<feGaussianBlur stdDeviation="2"/>
<feComposite in2="hardAlpha" operator="out"/>
<feColorMatrix type="matrix" values="0 0 0 0 0 0 0 0 0 0 0 0 0 0 0 0 0 0 0.25 0"/>
<feBlend mode="normal" in2="BackgroundImageFix" result="effect1_dropShadow_340_730"/>
<feBlend mode="normal" in="SourceGraphic" in2="effect1_dropShadow_340_730" result="shape"/>
</filter>
</defs>
</svg>
