<svg width="21" height="24" viewBox="0 0 21 24" fill="none" xmlns="http://www.w3.org/2000/svg">
<path d="M3 1.5C1.34531 1.5 0 2.84531 0 4.5V19.5C0 21.1547 1.34531 22.5 3 22.5H18C19.6547 22.5 21 21.1547 21 19.5V4.5C21 2.84531 19.6547 1.5 18 1.5H3ZM13.7906 11.4516C14.7047 11.8875 15.3703 12.5531 15.7219 13.3688C16.2094 14.5078 16.2563 16.3641 14.775 17.8406C13.6406 18.9703 12.2672 19.4812 10.3172 19.4953H10.3078C8.11406 19.4812 6.42656 18.7406 5.29688 17.3016C4.28906 16.0219 3.76875 14.2359 3.75 12V11.9906C3.76875 9.75469 4.28906 7.97344 5.29688 6.68906C6.43125 5.25 8.11875 4.50938 10.3078 4.49531H10.3172C12.5156 4.50938 14.2219 5.24531 15.3891 6.67969C15.9656 7.3875 16.3875 8.24062 16.6547 9.22969L15.3937 9.56719C15.1734 8.76094 14.8359 8.07188 14.3906 7.52344C13.4812 6.40312 12.1078 5.83125 10.3125 5.81719C8.53125 5.83125 7.18125 6.40313 6.30469 7.51406C5.48438 8.55938 5.05781 10.0641 5.04375 11.9906C5.05781 13.9172 5.48438 15.4266 6.30469 16.4672C7.18125 17.5828 8.52656 18.1547 10.3125 18.1641C11.9203 18.15 12.9797 17.7703 13.8656 16.8844C14.8734 15.8766 14.8547 14.6391 14.5312 13.8844C14.3438 13.4438 13.9969 13.0734 13.5328 12.7922C13.4203 13.6359 13.1625 14.3016 12.7594 14.8172C12.225 15.4969 11.4609 15.8672 10.4906 15.9188C9.75469 15.9609 9.04688 15.7828 8.49375 15.4172C7.84219 14.9859 7.4625 14.3297 7.42031 13.5656C7.34063 12.0562 8.53594 10.9734 10.3969 10.8656C11.0578 10.8281 11.6766 10.8562 12.2484 10.9547C12.1734 10.4906 12.0188 10.125 11.7891 9.85781C11.475 9.49219 10.9875 9.30469 10.3453 9.3H10.3266C9.81094 9.3 9.10781 9.44531 8.65781 10.125L7.57969 9.38437C8.17969 8.475 9.15469 7.97344 10.3219 7.97344H10.35C12.3094 7.9875 13.4719 9.20625 13.5891 11.3391C13.6547 11.3672 13.7203 11.3953 13.7859 11.4281L13.7906 11.4516ZM10.425 14.6156C11.2219 14.5734 12.1313 14.2594 12.2859 12.3281C11.8734 12.2391 11.4141 12.1922 10.9266 12.1922C10.7766 12.1922 10.6266 12.1969 10.4766 12.2062C9.13594 12.2812 8.69063 12.9328 8.72344 13.5141C8.76562 14.2969 9.61406 14.6625 10.4297 14.6203L10.425 14.6156Z" fill="black"/>
</svg>
