<svg width="19" height="16" viewBox="0 0 19 16" fill="none" xmlns="http://www.w3.org/2000/svg">
<path d="M18.1816 2.37971C17.5123 2.67539 16.799 2.87138 16.0554 2.96654C16.8204 2.50659 17.4043 1.78382 17.6788 0.91265C16.9655 1.34087 16.178 1.64335 15.3388 1.81215C14.6615 1.08598 13.6963 0.63623 12.6433 0.63623C10.6003 0.63623 8.95552 2.30608 8.95552 4.35317C8.95552 4.64771 8.98027 4.93093 9.04102 5.20055C5.97314 5.04988 3.25852 3.56922 1.43489 1.31369C1.11652 1.86992 0.929766 2.50659 0.929766 3.19198C0.929766 4.47892 1.58789 5.61971 2.56889 6.28017C1.97602 6.26885 1.39439 6.09552 0.901641 5.8225C0.901641 5.83383 0.901641 5.84855 0.901641 5.86328C0.901641 7.66907 2.18077 9.16899 3.85814 9.51451C3.55777 9.59721 3.23039 9.63686 2.89064 9.63686C2.65439 9.63686 2.41589 9.62327 2.19202 9.57342C2.67014 11.045 4.02689 12.1269 5.64014 12.162C4.38464 13.151 2.79052 13.7469 1.06477 13.7469C0.762141 13.7469 0.471891 13.7333 0.181641 13.6959C1.81627 14.7574 3.75352 15.3635 5.84264 15.3635C12.6331 15.3635 16.3456 9.69917 16.3456 4.78932C16.3456 4.62506 16.34 4.46645 16.3321 4.30899C17.0645 3.7856 17.6799 3.13194 18.1816 2.37971Z" fill="#FEFEFE"/>
</svg>
