<svg width="19" height="18" viewBox="0 0 19 18" fill="none" xmlns="http://www.w3.org/2000/svg">
<path fill-rule="evenodd" clip-rule="evenodd" d="M5.80664 0H12.5566C15.6628 0 18.1816 2.51887 18.1816 5.625V12.375C18.1816 15.4811 15.6628 18 12.5566 18H5.80664C2.70052 18 0.181641 15.4811 0.181641 12.375V5.625C0.181641 2.51887 2.70052 0 5.80664 0ZM12.5801 16.3636C14.7665 16.3636 16.5451 14.585 16.5451 12.3986V5.6014C16.5451 3.41497 14.7665 1.63636 12.5801 1.63636H5.78291C3.59647 1.63636 1.81787 3.41497 1.81787 5.6014V12.3986C1.81787 14.585 3.59647 16.3636 5.78291 16.3636H12.5801Z" fill="#FEFEFE"/>
<path fill-rule="evenodd" clip-rule="evenodd" d="M4.27246 9.40918C4.27246 6.92405 6.28717 4.90918 8.77209 4.90918C11.257 4.90918 13.2717 6.92405 13.2717 9.40918C13.2717 11.8943 11.257 13.9092 8.77209 13.9092C6.28717 13.9092 4.27246 11.8943 4.27246 9.40918ZM5.90878 9.40909C5.90878 10.9875 7.19398 12.2727 8.77242 12.2727C10.3509 12.2727 11.6361 10.9875 11.6361 9.40909C11.6361 7.82951 10.3509 6.54545 8.77242 6.54545C7.19398 6.54545 5.90878 7.82951 5.90878 9.40909Z" fill="#FEFEFE"/>
<circle cx="13.6816" cy="3.6818" r="0.409091" fill="#FEFEFE"/>
</svg>
