<svg width="32" height="32" viewBox="0 0 32 32" fill="none" xmlns="http://www.w3.org/2000/svg">
<path d="M10.6667 16C13.7067 16 16.0001 13.7066 16.0001 10.6666C16.0001 7.62665 13.7067 5.33332 10.6667 5.33332C7.62675 5.33332 5.33341 7.62665 5.33341 10.6666C5.33341 13.7066 7.62675 16 10.6667 16ZM10.6667 7.99998C12.2374 7.99998 13.3334 9.09598 13.3334 10.6666C13.3334 12.2373 12.2374 13.3333 10.6667 13.3333C9.09608 13.3333 8.00008 12.2373 8.00008 10.6666C8.00008 9.09598 9.09608 7.99998 10.6667 7.99998ZM12.0001 17.3333H9.33342C5.65741 17.3333 2.66675 20.324 2.66675 24V25.3333H5.33341V24C5.33341 21.7946 7.12808 20 9.33342 20H12.0001C14.2054 20 16.0001 21.7946 16.0001 24V25.3333H18.6667V24C18.6667 20.324 15.6761 17.3333 12.0001 17.3333ZM24.4854 3.51465L22.6001 5.39998C24.3614 7.16398 25.3334 9.50798 25.3334 12C25.3334 14.492 24.3614 16.836 22.6001 18.6L24.4854 20.4853C26.7521 18.2173 28.0001 15.204 28.0001 12C28.0001 8.79598 26.7521 5.78265 24.4854 3.51465Z" fill="#028B87"/>
<path d="M20.7132 7.28528L18.8279 9.17328C19.5839 9.92661 19.9999 10.9306 19.9999 11.9999C19.9999 13.0693 19.5839 14.0733 18.8279 14.8266L20.7132 16.7146C21.9719 15.4559 22.6665 13.7826 22.6665 11.9999C22.6665 10.2173 21.9719 8.54395 20.7132 7.28528Z" fill="#028B87"/>
</svg>
