<svg width="32" height="32" viewBox="0 0 32 32" fill="none" xmlns="http://www.w3.org/2000/svg">
<path d="M9.06667 26.6666C8.4 26.6666 7.83333 26.4333 7.36667 25.9667C6.9 25.5 6.66667 24.9333 6.66667 24.2667C6.66667 23.8 6.8 23.3613 7.06667 22.9506C7.33333 22.54 7.68889 22.2453 8.13333 22.0666L13.3333 20V17C12.1333 18.4 10.7387 19.4724 9.14933 20.2173C7.56 20.9622 5.84356 21.3342 4 21.3333V18.6666C5.51111 18.6666 6.88356 18.3555 8.11733 17.7333C9.35111 17.1111 10.4676 16.2222 11.4667 15.0666L13.2667 12.9333C13.5333 12.6222 13.8444 12.3889 14.2 12.2333C14.5556 12.0778 14.9333 12 15.3333 12H16.6667C17.0667 12 17.4444 12.0778 17.8 12.2333C18.1556 12.3889 18.4667 12.6222 18.7333 12.9333L20.5333 15.0666C21.5333 16.2222 22.6498 17.1111 23.8827 17.7333C25.1156 18.3555 26.488 18.6666 28 18.6666V21.3333C26.1556 21.3333 24.4387 20.9609 22.8493 20.216C21.26 19.4711 19.8658 18.3991 18.6667 17V20L23.8667 22.0666C24.3111 22.2444 24.6667 22.5391 24.9333 22.9506C25.2 23.3622 25.3333 23.8009 25.3333 24.2667C25.3333 24.9333 25.1 25.5 24.6333 25.9667C24.1667 26.4333 23.6 26.6666 22.9333 26.6666H13.3333V26C13.3333 25.4222 13.5222 24.9444 13.9 24.5666C14.2778 24.1889 14.7556 24 15.3333 24H19.3333C19.5333 24 19.6947 23.9386 19.8173 23.816C19.94 23.6933 20.0009 23.5324 20 23.3333C20 23.1333 19.9387 22.972 19.816 22.8493C19.6933 22.7266 19.5324 22.6658 19.3333 22.6666H15.3333C14.4 22.6666 13.6111 22.9889 12.9667 23.6333C12.3222 24.2778 12 25.0667 12 26V26.6666H9.06667ZM16 10.6666C15.2667 10.6666 14.6387 10.4053 14.116 9.88265C13.5933 9.35998 13.3324 8.73243 13.3333 7.99998C13.3333 7.26665 13.5947 6.63865 14.1173 6.11598C14.64 5.59332 15.2676 5.33243 16 5.33332C16.7333 5.33332 17.3613 5.59465 17.884 6.11731C18.4067 6.63998 18.6676 7.26754 18.6667 7.99998C18.6667 8.73332 18.4053 9.36132 17.8827 9.88398C17.36 10.4066 16.7324 10.6675 16 10.6666Z" fill="#FDBA21"/>
</svg>
