<svg width="32" height="32" viewBox="0 0 32 32" fill="none" xmlns="http://www.w3.org/2000/svg">
<path d="M17 5.25334C18.3333 4.29334 19.88 3.81334 21.6266 3.81334C22.5866 3.81334 23.64 4.06667 24.7866 4.60001C25.9333 5.12001 26.84 5.73334 27.5066 6.44001C28.88 8.14667 29.4533 10.1333 29.2533 12.4C29.04 14.6667 28.2933 16.44 27 17.6933L16.88 27.8133C16.6266 28.0667 16.3066 28.1867 15.9333 28.1867C15.56 28.1867 15.2533 28.0667 15 27.8133C14.8768 27.6919 14.7801 27.5463 14.7159 27.3857C14.6516 27.225 14.6213 27.0529 14.6266 26.88C14.6266 26.5067 14.7466 26.1867 15 25.9333L21.12 19.8133C21.4533 19.52 21.4533 19.2133 21.12 18.88C20.7866 18.5467 20.48 18.5467 20.1866 18.88L14.0666 25C13.9432 25.1243 13.7954 25.2217 13.6325 25.2859C13.4695 25.3502 13.295 25.3799 13.12 25.3733C12.7466 25.3733 12.44 25.2533 12.1866 25C12.0635 24.8785 11.9668 24.7329 11.9025 24.5723C11.8383 24.4117 11.8079 24.2396 11.8133 24.0667C11.8133 23.6933 11.9333 23.3733 12.1866 23.12L18.3066 17C18.6666 16.6667 18.6666 16.3333 18.3066 16C18 15.6667 17.7066 15.6667 17.3733 16L11.2533 22.1867C11.1285 22.3091 10.9804 22.4052 10.8178 22.4693C10.6552 22.5334 10.4814 22.5643 10.3066 22.56C9.93332 22.56 9.61332 22.44 9.33332 22.1867C9.06665 21.9333 8.93332 21.6267 8.93332 21.2533C8.93332 20.88 9.07998 20.5467 9.37332 20.2533L15.5066 14.12C15.84 13.7867 15.84 13.48 15.5066 13.1867C15.1733 12.8933 14.8533 12.8933 14.56 13.1867L8.37332 19.3333C8.07998 19.6 7.77332 19.7467 7.43998 19.7467C7.06665 19.7467 6.74665 19.6133 6.50665 19.3333C6.25332 19.0667 6.11998 18.7467 6.11998 18.3733C6.11998 18 6.25332 17.6933 6.50665 17.44C10.5866 13.3333 13.1066 10.8533 14.0666 9.93334L18.8133 14.6267C19.3333 15.12 19.9333 15.3733 20.6666 15.3733C21.6 15.3733 22.3333 15 22.88 14.2533C23.2533 13.7067 23.3866 13.1067 23.28 12.44C23.1733 11.7733 22.8933 11.2133 22.44 10.7467L17 5.25334ZM19.7467 13.6933L14.0666 8.00001L4.62665 17.44C3.50665 16.3067 2.86665 14.5733 2.71998 12.2133C2.57332 9.86667 3.21332 7.82667 4.62665 6.12001C6.21332 4.54667 8.10665 3.74667 10.3066 3.74667C12.52 3.74667 14.4 4.54667 15.9333 6.12001L21.6266 11.8133C21.88 12.0667 22 12.3733 22 12.7467C22 13.12 21.88 13.44 21.6266 13.6933C21.3733 13.9333 21.0666 14.0667 20.6666 14.0667C20.3067 14.0667 20 13.9333 19.7467 13.6933Z" fill="#27B803"/>
</svg>
