<svg width="19" height="18" viewBox="0 0 19 18" fill="none" xmlns="http://www.w3.org/2000/svg">
<path fill-rule="evenodd" clip-rule="evenodd" d="M5.80664 0H12.5566C15.6628 0 18.1816 2.51887 18.1816 5.625V12.375C18.1816 15.4811 15.6628 18 12.5566 18H5.80664C2.70052 18 0.181641 15.4811 0.181641 12.375V5.625C0.181641 2.51887 2.70052 0 5.80664 0ZM12.5801 16.3636C14.7665 16.3636 16.5451 14.585 16.5451 12.3986V5.6014C16.5451 3.41497 14.7665 1.63636 12.5801 1.63636H5.78291C3.59647 1.63636 1.81787 3.41497 1.81787 5.6014V12.3986C1.81787 14.585 3.59647 16.3636 5.78291 16.3636H12.5801Z" fill="#FEFEFE"/>
</svg>
