<svg width="32" height="39" viewBox="0 0 32 39" fill="none" xmlns="http://www.w3.org/2000/svg">
<circle cx="16" cy="22.5" r="16" fill="#FDBA21"/>
<path d="M15.64 16.92C17.1733 16.92 18.24 17.3 18.84 18.06C19.44 18.8067 19.74 19.6333 19.74 20.54C19.74 21.34 19.5133 22.0733 19.06 22.74C18.62 23.4067 17.9133 24.14 16.94 24.94L15.04 26.52H19.98L20.32 28.5H11.62V26.76L15.54 23.32C16.2867 22.6667 16.7867 22.1467 17.04 21.76C17.2933 21.36 17.42 20.9533 17.42 20.54C17.42 20.1133 17.26 19.7533 16.94 19.46C16.62 19.1667 16.1733 19.02 15.6 19.02C15.1067 19.02 14.54 19.2 13.9 19.56C13.26 19.92 12.92 20.1067 12.88 20.12L11.76 18.36C12.1333 18.0667 12.64 17.7533 13.28 17.42C13.92 17.0867 14.7067 16.92 15.64 16.92Z" fill="#FCFCFC"/>
</svg>
