<svg width="32" height="39" viewBox="0 0 32 39" fill="none" xmlns="http://www.w3.org/2000/svg">
<circle cx="16" cy="22.5" r="16" fill="#27B803"/>
<path d="M16.06 16.92C17.46 16.92 18.5067 17.2667 19.2 17.96C19.9067 18.6533 20.26 19.4667 20.26 20.4C20.26 21.0133 20.0867 21.5667 19.74 22.06C19.3933 22.54 19.0267 22.8667 18.64 23.04C19.0133 23.1333 19.4133 23.46 19.84 24.02C20.28 24.5667 20.5 25.2533 20.5 26.08C20.5 27.1867 20.0733 28.12 19.22 28.88C18.3667 29.64 17.22 30.02 15.78 30.02C15.0467 30.02 14.2867 29.8867 13.5 29.62C12.7267 29.3667 12.0333 29.08 11.42 28.76L12.74 27.02C13.2733 27.34 13.7733 27.5733 14.24 27.72C14.7067 27.8533 15.2333 27.92 15.82 27.92C16.4067 27.92 16.9333 27.76 17.4 27.44C17.88 27.12 18.12 26.6733 18.12 26.1C18.12 25.4867 17.88 25 17.4 24.64C16.9333 24.28 16.1733 24.1 15.12 24.1H14.28L13.92 22.08H15.24C16.0533 22.08 16.6933 21.9333 17.16 21.64C17.64 21.3333 17.88 20.9333 17.88 20.44C17.88 20.0533 17.7067 19.72 17.36 19.44C17.0267 19.16 16.5733 19.02 16 19.02C15.4 19.02 14.84 19.1333 14.32 19.36C13.8133 19.5733 13.38 19.8067 13.02 20.06L11.8 18.32C12.4533 17.8933 13.1267 17.5533 13.82 17.3C14.5133 17.0467 15.26 16.92 16.06 16.92Z" fill="#FCFCFC"/>
</svg>
