<svg width="32" height="32" viewBox="0 0 32 32" fill="none" xmlns="http://www.w3.org/2000/svg">
<path d="M29.2267 8.82667C29.0914 8.50087 28.8325 8.24197 28.5067 8.10667C28.3464 8.03835 28.1742 8.00211 28 8H21.3333C20.9797 8 20.6406 8.14048 20.3905 8.39052C20.1405 8.64057 20 8.97971 20 9.33333C20 9.68696 20.1405 10.0261 20.3905 10.2761C20.6406 10.5262 20.9797 10.6667 21.3333 10.6667H24.7867L17.3333 18.12L12.9467 13.72C12.8227 13.595 12.6752 13.4958 12.5128 13.4281C12.3503 13.3605 12.176 13.3256 12 13.3256C11.824 13.3256 11.6497 13.3605 11.4872 13.4281C11.3248 13.4958 11.1773 13.595 11.0533 13.72L3.05333 21.72C2.92836 21.844 2.82917 21.9914 2.76148 22.1539C2.69379 22.3164 2.65894 22.4907 2.65894 22.6667C2.65894 22.8427 2.69379 23.017 2.76148 23.1794C2.82917 23.3419 2.92836 23.4894 3.05333 23.6133C3.17728 23.7383 3.32475 23.8375 3.48723 23.9052C3.64971 23.9729 3.82398 24.0077 4 24.0077C4.17602 24.0077 4.35029 23.9729 4.51277 23.9052C4.67525 23.8375 4.82272 23.7383 4.94667 23.6133L12 16.5467L16.3867 20.9467C16.5106 21.0716 16.6581 21.1708 16.8206 21.2385C16.983 21.3062 17.1573 21.3411 17.3333 21.3411C17.5093 21.3411 17.6836 21.3062 17.8461 21.2385C18.0086 21.1708 18.156 21.0716 18.28 20.9467L26.6667 12.5467V16C26.6667 16.3536 26.8071 16.6928 27.0572 16.9428C27.3072 17.1929 27.6464 17.3333 28 17.3333C28.3536 17.3333 28.6928 17.1929 28.9428 16.9428C29.1929 16.6928 29.3333 16.3536 29.3333 16V9.33333C29.3312 9.1591 29.295 8.98696 29.2267 8.82667Z" fill="#FE6005"/>
</svg>
