<svg width="19" height="18" viewBox="0 0 19 18" fill="none" xmlns="http://www.w3.org/2000/svg">
<path d="M15.4316 0H2.93164C1.41564 0 0.181641 1.234 0.181641 2.75V15.25C0.181641 16.766 1.41564 18 2.93164 18H15.4316C16.9476 18 18.1816 16.766 18.1816 15.25V2.75C18.1816 1.234 16.9476 0 15.4316 0ZM6.18164 14C6.18164 14.2765 5.95814 14.5 5.68164 14.5H4.18164C3.90514 14.5 3.68164 14.2765 3.68164 14V7.5C3.68164 7.2235 3.90514 7 4.18164 7H5.68164C5.95814 7 6.18164 7.2235 6.18164 7.5V14ZM4.93164 6C4.24114 6 3.68164 5.4405 3.68164 4.75C3.68164 4.0595 4.24114 3.5 4.93164 3.5C5.62214 3.5 6.18164 4.0595 6.18164 4.75C6.18164 5.4405 5.62214 6 4.93164 6ZM14.6816 14C14.6816 14.2765 14.4581 14.5 14.1816 14.5H12.6816C12.4051 14.5 12.1816 14.2765 12.1816 14V10.25C12.1816 9.5605 11.6211 9 10.9316 9C10.2421 9 9.68164 9.5605 9.68164 10.25V14C9.68164 14.2765 9.45814 14.5 9.18164 14.5H7.68164C7.40514 14.5 7.18164 14.2765 7.18164 14V7.5C7.18164 7.2235 7.40514 7 7.68164 7H9.18164C9.45814 7 9.68164 7.2235 9.68164 7.5V7.7705C10.2131 7.293 10.9126 7 11.6816 7C13.3361 7 14.6816 8.3455 14.6816 10V14Z" fill="#FEFEFE"/>
</svg>
