<svg width="57" height="56" viewBox="0 0 57 56" fill="none" xmlns="http://www.w3.org/2000/svg">
<circle opacity="0.7" cx="28.5" cy="28" r="28" fill="#F1D6C6"/>
<path d="M41.7267 20.8267C41.5914 20.5009 41.3325 20.242 41.0067 20.1067C40.8464 20.0383 40.6742 20.0021 40.5 20H33.8333C33.4797 20 33.1406 20.1405 32.8905 20.3905C32.6405 20.6406 32.5 20.9797 32.5 21.3333C32.5 21.687 32.6405 22.0261 32.8905 22.2761C33.1406 22.5262 33.4797 22.6667 33.8333 22.6667H37.2867L29.8333 30.12L25.4467 25.72C25.3227 25.595 25.1752 25.4958 25.0128 25.4281C24.8503 25.3605 24.676 25.3256 24.5 25.3256C24.324 25.3256 24.1497 25.3605 23.9872 25.4281C23.8248 25.4958 23.6773 25.595 23.5533 25.72L15.5533 33.72C15.4284 33.844 15.3292 33.9914 15.2615 34.1539C15.1938 34.3164 15.1589 34.4907 15.1589 34.6667C15.1589 34.8427 15.1938 35.017 15.2615 35.1794C15.3292 35.3419 15.4284 35.4894 15.5533 35.6133C15.6773 35.7383 15.8248 35.8375 15.9872 35.9052C16.1497 35.9729 16.324 36.0077 16.5 36.0077C16.676 36.0077 16.8503 35.9729 17.0128 35.9052C17.1752 35.8375 17.3227 35.7383 17.4467 35.6133L24.5 28.5467L28.8867 32.9467C29.0106 33.0716 29.1581 33.1708 29.3206 33.2385C29.483 33.3062 29.6573 33.3411 29.8333 33.3411C30.0093 33.3411 30.1836 33.3062 30.3461 33.2385C30.5086 33.1708 30.656 33.0716 30.78 32.9467L39.1667 24.5467V28C39.1667 28.3536 39.3071 28.6928 39.5572 28.9428C39.8072 29.1929 40.1464 29.3333 40.5 29.3333C40.8536 29.3333 41.1928 29.1929 41.4428 28.9428C41.6929 28.6928 41.8333 28.3536 41.8333 28V21.3333C41.8312 21.1591 41.795 20.987 41.7267 20.8267Z" fill="#FE6005"/>
</svg>
