<svg width="57" height="56" viewBox="0 0 57 56" fill="none" xmlns="http://www.w3.org/2000/svg">
<circle opacity="0.7" cx="28.5" cy="28" r="28" fill="#CFF1C6"/>
<path d="M29.5 17.2533C30.8333 16.2933 32.38 15.8133 34.1266 15.8133C35.0866 15.8133 36.14 16.0667 37.2866 16.6C38.4333 17.12 39.34 17.7333 40.0066 18.44C41.38 20.1467 41.9533 22.1333 41.7533 24.4C41.54 26.6667 40.7933 28.44 39.5 29.6933L29.38 39.8133C29.1266 40.0667 28.8066 40.1867 28.4333 40.1867C28.06 40.1867 27.7533 40.0667 27.5 39.8133C27.3768 39.6919 27.2801 39.5463 27.2159 39.3856C27.1516 39.225 27.1213 39.0529 27.1266 38.88C27.1266 38.5067 27.2466 38.1867 27.5 37.9333L33.62 31.8133C33.9533 31.52 33.9533 31.2133 33.62 30.88C33.2866 30.5467 32.98 30.5467 32.6866 30.88L26.5666 37C26.4432 37.1243 26.2954 37.2217 26.1325 37.2859C25.9695 37.3502 25.795 37.3799 25.62 37.3733C25.2466 37.3733 24.94 37.2533 24.6866 37C24.5635 36.8785 24.4668 36.7329 24.4025 36.5723C24.3383 36.4117 24.3079 36.2396 24.3133 36.0667C24.3133 35.6933 24.4333 35.3733 24.6866 35.12L30.8066 29C31.1666 28.6667 31.1666 28.3333 30.8066 28C30.5 27.6667 30.2066 27.6667 29.8733 28L23.7533 34.1867C23.6285 34.309 23.4804 34.4051 23.3178 34.4693C23.1552 34.5334 22.9814 34.5643 22.8066 34.56C22.4333 34.56 22.1133 34.44 21.8333 34.1867C21.5666 33.9333 21.4333 33.6267 21.4333 33.2533C21.4333 32.88 21.58 32.5467 21.8733 32.2533L28.0066 26.12C28.34 25.7867 28.34 25.48 28.0066 25.1867C27.6733 24.8933 27.3533 24.8933 27.06 25.1867L20.8733 31.3333C20.58 31.6 20.2733 31.7467 19.94 31.7467C19.5666 31.7467 19.2466 31.6133 19.0066 31.3333C18.7533 31.0667 18.62 30.7467 18.62 30.3733C18.62 30 18.7533 29.6933 19.0066 29.44C23.0866 25.3333 25.6066 22.8533 26.5666 21.9333L31.3133 26.6267C31.8333 27.12 32.4333 27.3733 33.1666 27.3733C34.1 27.3733 34.8333 27 35.38 26.2533C35.7533 25.7067 35.8866 25.1067 35.78 24.44C35.6733 23.7733 35.3933 23.2133 34.94 22.7467L29.5 17.2533ZM32.2467 25.6933L26.5666 20L17.1266 29.44C16.0066 28.3067 15.3666 26.5733 15.22 24.2133C15.0733 21.8667 15.7133 19.8267 17.1266 18.12C18.7133 16.5467 20.6066 15.7467 22.8066 15.7467C25.02 15.7467 26.9 16.5467 28.4333 18.12L34.1266 23.8133C34.38 24.0667 34.5 24.3733 34.5 24.7467C34.5 25.12 34.38 25.44 34.1266 25.6933C33.8733 25.9333 33.5666 26.0667 33.1666 26.0667C32.8067 26.0667 32.5 25.9333 32.2467 25.6933Z" fill="#27B803"/>
</svg>
