<svg width="57" height="56" viewBox="0 0 57 56" fill="none" xmlns="http://www.w3.org/2000/svg">
<circle opacity="0.7" cx="28.5" cy="28" r="28" fill="#FFEEC6"/>
<path d="M21.5667 38.6667C20.9 38.6667 20.3333 38.4333 19.8667 37.9667C19.4 37.5 19.1667 36.9333 19.1667 36.2667C19.1667 35.8 19.3 35.3613 19.5667 34.9507C19.8333 34.54 20.1889 34.2453 20.6333 34.0667L25.8333 32V29C24.6333 30.4 23.2387 31.4724 21.6493 32.2173C20.06 32.9622 18.3436 33.3342 16.5 33.3333V30.6667C18.0111 30.6667 19.3836 30.3556 20.6173 29.7333C21.8511 29.1111 22.9676 28.2222 23.9667 27.0667L25.7667 24.9333C26.0333 24.6222 26.3444 24.3889 26.7 24.2333C27.0556 24.0778 27.4333 24 27.8333 24H29.1667C29.5667 24 29.9444 24.0778 30.3 24.2333C30.6556 24.3889 30.9667 24.6222 31.2333 24.9333L33.0333 27.0667C34.0333 28.2222 35.1498 29.1111 36.3827 29.7333C37.6156 30.3556 38.988 30.6667 40.5 30.6667V33.3333C38.6556 33.3333 36.9387 32.9609 35.3493 32.216C33.76 31.4711 32.3658 30.3991 31.1667 29V32L36.3667 34.0667C36.8111 34.2444 37.1667 34.5391 37.4333 34.9507C37.7 35.3622 37.8333 35.8009 37.8333 36.2667C37.8333 36.9333 37.6 37.5 37.1333 37.9667C36.6667 38.4333 36.1 38.6667 35.4333 38.6667H25.8333V38C25.8333 37.4222 26.0222 36.9444 26.4 36.5667C26.7778 36.1889 27.2556 36 27.8333 36H31.8333C32.0333 36 32.1947 35.9387 32.3173 35.816C32.44 35.6933 32.5009 35.5324 32.5 35.3333C32.5 35.1333 32.4387 34.972 32.316 34.8493C32.1933 34.7267 32.0324 34.6658 31.8333 34.6667H27.8333C26.9 34.6667 26.1111 34.9889 25.4667 35.6333C24.8222 36.2778 24.5 37.0667 24.5 38V38.6667H21.5667ZM28.5 22.6667C27.7667 22.6667 27.1387 22.4053 26.616 21.8827C26.0933 21.36 25.8324 20.7324 25.8333 20C25.8333 19.2667 26.0947 18.6387 26.6173 18.116C27.14 17.5933 27.7676 17.3324 28.5 17.3333C29.2333 17.3333 29.8613 17.5947 30.384 18.1173C30.9067 18.64 31.1676 19.2676 31.1667 20C31.1667 20.7333 30.9053 21.3613 30.3827 21.884C29.86 22.4067 29.2324 22.6676 28.5 22.6667Z" fill="#FDBA21"/>
</svg>
