<svg width="57" height="56" viewBox="0 0 57 56" fill="none" xmlns="http://www.w3.org/2000/svg">
<circle opacity="0.7" cx="28.5" cy="28" r="28" fill="#C6F1EF"/>
<path d="M24.1666 28C27.2066 28 29.5 25.7067 29.5 22.6667C29.5 19.6267 27.2066 17.3333 24.1666 17.3333C21.1266 17.3333 18.8333 19.6267 18.8333 22.6667C18.8333 25.7067 21.1266 28 24.1666 28ZM24.1666 20C25.7373 20 26.8333 21.096 26.8333 22.6667C26.8333 24.2373 25.7373 25.3333 24.1666 25.3333C22.596 25.3333 21.5 24.2373 21.5 22.6667C21.5 21.096 22.596 20 24.1666 20ZM25.5 29.3333H22.8333C19.1573 29.3333 16.1666 32.324 16.1666 36V37.3333H18.8333V36C18.8333 33.7947 20.628 32 22.8333 32H25.5C27.7053 32 29.5 33.7947 29.5 36V37.3333H32.1666V36C32.1666 32.324 29.176 29.3333 25.5 29.3333ZM37.9853 15.5147L36.1 17.4C37.8613 19.164 38.8333 21.508 38.8333 24C38.8333 26.492 37.8613 28.836 36.1 30.6L37.9853 32.4853C40.252 30.2173 41.5 27.204 41.5 24C41.5 20.796 40.252 17.7827 37.9853 15.5147Z" fill="#028B87"/>
<path d="M34.2133 19.2853L32.328 21.1733C33.084 21.9267 33.5 22.9307 33.5 24C33.5 25.0693 33.084 26.0733 32.328 26.8267L34.2133 28.7147C35.472 27.456 36.1667 25.7827 36.1667 24C36.1667 22.2173 35.472 20.544 34.2133 19.2853Z" fill="#028B87"/>
</svg>
